<svg width="155" height="50" viewBox="0 0 155 50" fill="none" xmlns="http://www.w3.org/2000/svg">
<g clip-path="url(#clip0_90:10)">
<path d="M87.4797 7.25952H79.9291L68.5325 29.6993H75.5062L77.6696 25.0876H89.4282L91.535 29.6993H98.7689L87.4797 7.25952ZM79.4908 21.2191L83.6337 12.3912L87.6664 21.2191H79.4908Z" fill="white"/>
<path d="M118.251 7.25952L111.252 24.302L104.32 7.25952H97.1938L107.994 29.6993H114.294L125.182 7.25952H118.251Z" fill="white"/>
<path d="M144.46 18.0852L154.231 7.25952H146.519L140.668 14.5671L134.972 7.25952H127L136.771 18.2802L126.503 29.6993H134.257L140.668 22.0414L146.734 29.6909H154.836L144.46 18.0852Z" fill="white"/>
<path d="M95.6921 41.7712L90.2794 36.8345H88.5657V42.9269H89.9514V37.9959L95.4461 42.9269H97.0721V36.8345H95.6921V41.7712ZM68.5438 42.9835H69.9945V40.2142H75.2545V39.4879H69.9945V37.6399H75.9756V36.891H68.5325L68.5438 42.9835ZM81.5524 42.9269H83.0201V36.8345H81.5524V42.9269ZM139.288 41.6582C138.722 42.1272 137.913 42.359 136.844 42.359C135.683 42.359 134.81 42.1376 134.226 41.6949C133.948 41.5002 133.721 41.2401 133.568 40.9375C133.414 40.635 133.337 40.2992 133.343 39.9598C133.32 39.5792 133.397 39.1991 133.568 38.8581C133.739 38.5171 133.997 38.2274 134.316 38.0185C135.086 37.5679 135.97 37.3491 136.861 37.3884C137.551 37.3561 138.24 37.4727 138.881 37.7303C139.307 37.9102 139.649 38.2443 139.839 38.6656H141.253C141.172 38.1476 140.756 37.6851 140.006 37.2782C139.256 36.8712 138.203 36.6687 136.847 36.6706C135.258 36.6706 134.011 36.9824 133.106 37.6059C132.269 38.1824 131.85 38.9199 131.85 39.8186C131.85 40.9997 132.407 41.8748 133.522 42.4437C134.502 42.8994 135.577 43.1191 136.658 43.0852C138.104 43.0852 139.251 42.8243 140.099 42.3024C140.808 41.8673 141.227 41.3294 141.355 40.6889H139.941C139.81 41.0674 139.577 41.4026 139.268 41.6582H139.288ZM148.337 42.2035V40.1266H154.253V39.4201H148.329V37.5833H154.726V36.8345H146.915V42.9269H154.833V42.2035H148.337ZM106.682 36.8345L102.655 42.9269H104.142L105.304 41.1043H109.546L110.632 42.9269H112.221L108.31 36.8345H106.682ZM105.712 40.4318L107.439 37.7388L109.065 40.4318H105.712ZM124.905 41.7712L119.492 36.8345H117.778V42.9269H119.164V37.9959L124.659 42.9269H126.285V36.8345H124.905V41.7712Z" fill="url(#paint0_linear_90:10)"/>
<path d="M51.3018 42.0138L27.1766 1.51133L26.4385 0.284925C26.3903 0.201599 26.3211 0.132405 26.2377 0.0842978C26.1543 0.0361905 26.0597 0.0108643 25.9634 0.0108643C25.8671 0.0108643 25.7725 0.0361905 25.6891 0.0842978C25.6057 0.132405 25.5364 0.201599 25.4883 0.284925L1.10007 41.9771L0 43.8591L1.67697 44.2886L25.6947 49.9403L25.9775 50.0024L50.7447 44.283L52.4188 43.8958L51.3018 42.0138ZM25.9719 47.527L3.7131 42.2908L25.5081 5.02383C25.5542 4.94348 25.6204 4.87648 25.7002 4.82942C25.78 4.78235 25.8707 4.75684 25.9634 4.75538C26.0623 4.75004 26.1608 4.77199 26.2481 4.81884C26.3354 4.86569 26.4081 4.93563 26.4583 5.021L48.6548 42.2879L25.9719 47.527Z" fill="#6A6D76"/>
<path d="M52.4103 43.8934L50.7362 44.2805L25.969 50V47.5218L48.652 42.2827L26.4583 5.01865C26.4081 4.93328 26.3354 4.86334 26.2481 4.81649C26.1608 4.76964 26.0623 4.74768 25.9634 4.75302V0C26.0605 0.000855491 26.1557 0.0274673 26.2392 0.0771155C26.3226 0.126764 26.3914 0.197668 26.4385 0.282582L27.1766 1.50899L51.3018 42.0114L52.4103 43.8934Z" fill="white"/>
<path d="M43.8106 41.6243L25.9634 24.6694L8.1134 41.6243L17.0384 26.4129L25.9634 11.2015L34.8856 26.4129L43.8106 41.6243Z" fill="#CE262C"/>
<path opacity="0.55" d="M43.8106 41.6243L25.9634 24.6694L8.1134 41.6243L17.0384 26.4129L25.9634 11.2015L34.8856 26.4129L43.8106 41.6243Z" fill="#15253E"/>
<path d="M43.8106 41.6243L25.9634 24.6694V11.2015L34.8856 26.4129L43.8106 41.6243Z" fill="#CE262C"/>
<path d="M25.9634 44.2437L20.5762 35.0655L15.1918 25.8845L25.9634 36.1167L36.7351 25.8845L31.3507 35.0655L25.9634 44.2437Z" fill="#15253E"/>
<path d="M36.7351 25.8845L31.3478 35.0655L25.9634 44.2437L20.5762 35.0655L15.189 25.8845L25.9634 36.1167L36.7351 25.8845Z" fill="#EF7B6E"/>
<path opacity="0.45" d="M36.7351 25.8845L31.3478 35.0655L25.9634 44.2437L20.5762 35.0655L15.189 25.8845L25.9634 36.1167L36.7351 25.8845Z" fill="#15253E"/>
<path d="M36.735 25.8845L31.3478 35.0655L25.9634 44.2437V36.1167L36.735 25.8845Z" fill="#EF7B6E"/>
</g>
<defs>
<linearGradient id="paint0_linear_90:10" x1="68.5325" y1="40.2509" x2="154.836" y2="40.2509" gradientUnits="userSpaceOnUse">
<stop stop-color="#CE262C"/>
<stop offset="0.21" stop-color="#D63A39"/>
<stop offset="0.73" stop-color="#E86655"/>
<stop offset="1" stop-color="#EF7760"/>
</linearGradient>
<clipPath id="clip0_90:10">
<rect width="154.839" height="50" fill="white"/>
</clipPath>
</defs>
</svg>
